<?xml version="1.0" standalone="no"?>
<!DOCTYPE svg PUBLIC "-//W3C//DTD SVG 20010904//EN"
 "http://www.w3.org/TR/2001/REC-SVG-20010904/DTD/svg10.dtd">
<svg version="1.0" xmlns="http://www.w3.org/2000/svg"
 width="21pt" height="21pt" viewBox="0 0 21 21"
 preserveAspectRatio="xMidYMid meet">
<g transform="translate(0,21) scale(0.080000,-0.080000)"
fill="#000000" stroke="none">
<path d="M106 229 c-94 -26 -105 -144 -18 -189 34 -17 102 -4 102 20 0 10 9
22 20 25 11 3 20 10 20 15 0 5 -8 7 -17 4 -17 -5 -17 -5 0 6 24 15 11 33 -14
19 -13 -7 -18 -16 -14 -29 4 -14 1 -19 -15 -19 -11 -1 -30 -1 -42 -1 -34 -1
-53 25 -49 71 1 21 48 42 68 31 12 -7 8 -11 -16 -22 -31 -12 -40 -33 -20 -45
11 -8 119 33 119 45 0 17 -42 59 -67 67 -16 6 -41 6 -57 2z m75 -30 c16 -11
29 -24 29 -28 0 -4 -20 -17 -45 -29 -25 -12 -45 -18 -45 -13 0 5 16 16 35 25
19 9 35 19 35 22 0 3 -15 11 -32 19 -35 14 -61 7 -85 -24 -14 -18 -17 -60 -5
-77 13 -20 54 -36 78 -30 13 4 24 2 24 -3 0 -26 -82 -13 -114 19 -16 16 -16
71 1 97 30 45 79 54 124 22z"/>
</g>
</svg>
